<svg version="1.1" id="Layer_1" xmlns="http://www.w3.org/2000/svg" xmlns:xlink="http://www.w3.org/1999/xlink" x="0px" y="0px"
	 width="100%" viewBox="0 0 512 512" enable-background="new 0 0 512 512" xml:space="preserve">
<path fill="#6C27B3" opacity="1.000000" stroke="none" 
	d="
M513.000000,227.000000 
	C513.000000,247.020889 513.000000,267.041779 512.592224,287.400085 
	C510.797058,294.711853 509.402740,301.684845 508.023529,308.660828 
	C502.024445,339.003296 490.801453,367.217865 474.330841,393.449951 
	C463.871674,410.107758 451.475616,425.181671 437.992401,439.338654 
	C431.433350,446.225525 423.707275,452.024536 416.348572,458.121735 
	C396.344421,474.696686 373.907257,487.159668 349.781921,496.560852 
	C331.598297,503.646667 312.897888,508.959656 293.408478,511.138123 
	C292.876251,511.197601 292.466736,512.354736 292.000000,513.000000 
	C268.645782,513.000000 245.291550,513.000000 221.605545,512.598694 
	C220.435257,511.802704 219.634155,511.215027 218.752258,511.044006 
	C212.015656,509.737732 205.211105,508.742096 198.525208,507.221191 
	C174.207504,501.689423 151.259583,492.694397 129.559418,480.310669 
	C112.778534,470.734253 97.105057,459.612488 83.173187,446.374481 
	C72.524773,436.256470 62.696346,425.147980 53.438282,413.722351 
	C37.219429,393.706146 25.032290,371.193115 16.162760,347.052246 
	C9.843314,329.852142 5.012622,312.160553 2.904186,293.843658 
	C2.826071,293.165039 1.659388,292.611725 0.999999,292.000000 
	C1.000000,269.312439 1.000000,246.624878 1.407499,223.599976 
	C2.199673,222.589508 2.775984,221.960052 2.940793,221.236801 
	C6.423286,205.954437 8.933134,190.375458 13.543982,175.444565 
	C19.049400,157.616852 27.310812,140.827209 36.992413,124.757439 
	C51.963509,99.908043 70.770378,78.341644 92.906250,59.812355 
	C111.574463,44.185726 132.310776,31.671175 154.757614,21.996593 
	C177.463669,12.210281 200.985397,5.724896 225.545242,2.917581 
	C226.425064,2.817014 227.184479,1.663032 228.000000,1.000000 
	C246.687561,1.000000 265.375122,1.000000 284.405701,1.412153 
	C285.590149,2.211501 286.396393,2.802235 287.278351,2.954565 
	C296.623444,4.568608 306.077728,5.680940 315.315857,7.758826 
	C341.235168,13.588709 365.628693,23.396597 388.403046,37.117352 
	C414.479004,52.827183 437.385925,72.304436 456.397675,96.077072 
	C470.366241,113.543610 482.055023,132.473679 491.120270,153.057999 
	C501.230286,176.014481 508.029114,199.778473 511.082764,224.654373 
	C511.186798,225.501923 512.337280,226.221024 513.000000,227.000000 
M379.097534,378.368927 
	C379.731781,376.433624 380.842072,374.515564 380.912903,372.559845 
	C381.145355,366.142517 381.000275,359.711487 381.000275,352.997559 
	C390.073120,352.997559 398.390167,353.120605 406.701141,352.948700 
	C411.261108,352.854370 414.826385,350.742737 417.118927,346.604187 
	C419.412964,342.462860 419.085144,338.845459 416.523499,334.713043 
	C413.743469,330.228363 409.683441,329.216003 405.228699,329.072662 
	C397.297607,328.817505 389.352417,329.000946 381.409546,329.000946 
	C381.409546,322.636047 381.409546,316.926941 381.409546,310.997894 
	C390.473328,310.997894 399.131653,311.097565 407.786499,310.966858 
	C414.918488,310.859161 420.460571,302.537842 418.036499,295.837158 
	C415.962463,290.104095 411.383362,287.091309 404.307983,287.018738 
	C396.696594,286.940674 389.083832,287.001129 381.363190,287.001129 
	C381.363190,280.689880 381.363190,274.978149 381.363190,269.000427 
	C390.204651,269.000427 398.687347,268.941925 407.168732,269.020386 
	C413.118195,269.075409 415.972626,265.321960 418.136047,260.550568 
	C420.183411,256.035126 418.078125,252.766251 415.135529,249.560135 
	C411.686676,245.802399 407.208466,245.111450 402.552734,245.032028 
	C395.463531,244.911087 388.370728,245.000351 381.307983,245.000351 
	C381.307983,238.966476 381.307983,233.711853 381.307983,228.000000 
	C384.736664,228.000000 387.869598,228.106354 390.992798,227.976959 
	C396.758545,227.738098 402.583191,227.787186 408.263550,226.926285 
	C414.436066,225.990768 419.654846,220.049454 418.824402,215.143936 
	C417.805908,209.127945 413.124817,203.252594 405.516510,203.856491 
	C397.474640,204.494766 389.342834,203.999695 381.292786,203.999695 
	C381.292786,197.674133 381.292786,192.080780 381.292786,185.998657 
	C389.201630,185.998657 396.826385,186.070496 404.449127,185.978058 
	C411.781952,185.889130 418.723907,179.907196 418.938202,173.670975 
	C419.156952,167.305435 412.628418,162.001633 404.573242,162.001343 
	C396.813110,162.001068 389.052979,162.001282 381.497131,162.001282 
	C381.224976,160.951645 381.074402,160.638016 381.072418,160.323471 
	C381.037872,154.824844 381.013153,149.326111 381.003143,143.827377 
	C380.988586,135.843445 378.105530,133.016144 369.917938,133.002670 
	C364.136627,132.993164 358.355286,133.000839 351.993988,133.000839 
	C351.993988,124.284828 352.001251,116.166557 351.991760,108.048309 
	C351.983551,101.022568 346.676880,94.953880 340.401672,95.406998 
	C333.194794,95.927383 328.285614,102.094986 328.825836,108.301025 
	C329.526276,116.347679 328.996826,124.501396 328.996826,132.599030 
	C322.681702,132.599030 316.969330,132.599030 311.000061,132.599030 
	C311.000061,129.214951 311.102814,126.222961 310.978363,123.240463 
	C310.730621,117.303970 310.829315,111.298630 309.911804,105.458900 
	C308.876434,98.869064 303.347748,95.043221 297.405182,95.821510 
	C290.594299,96.713524 287.012329,100.857674 287.003143,107.891685 
	C286.992401,116.153999 287.000641,124.416328 287.000641,132.717834 
	C280.681488,132.717834 275.092682,132.717834 269.746246,132.717834 
	C269.404694,132.310120 269.209869,132.186279 269.208496,132.060394 
	C269.128052,124.399223 269.167603,116.735168 268.968079,109.077324 
	C268.769958,101.472939 262.746277,95.184860 256.195526,95.470108 
	C249.441803,95.764198 245.010056,101.184258 245.002106,109.180061 
	C244.994385,116.960098 245.000427,124.740150 245.000427,132.614166 
	C238.708069,132.614166 233.000885,132.614166 226.999557,132.614166 
	C226.999557,124.415138 227.060165,116.598915 226.982941,108.784050 
	C226.901794,100.571655 222.195511,95.966156 214.102448,96.004761 
	C207.254623,96.037430 203.016846,100.936760 203.003098,108.872879 
	C202.989365,116.802925 203.000076,124.733002 203.000076,132.722687 
	C196.690048,132.722687 191.101639,132.722687 184.998978,132.722687 
	C184.998978,124.500252 185.055893,116.544640 184.981735,108.590256 
	C184.917557,101.707291 181.142914,96.947655 175.518616,95.970589 
	C166.672989,94.433899 161.198761,100.394836 161.038574,108.246780 
	C160.873215,116.351257 161.001801,124.461739 161.001801,132.329895 
	C160.075821,132.679626 159.777878,132.888275 159.477936,132.891159 
	C154.147003,132.942551 148.815887,132.983017 143.484711,132.997498 
	C135.284027,133.019775 132.060379,136.159042 132.007782,144.292267 
	C131.970474,150.061386 132.000549,155.830948 132.000549,162.002487 
	C123.043716,162.002487 114.741325,161.927658 106.440994,162.026428 
	C99.933182,162.103867 95.576393,166.876038 94.898224,173.176605 
	C94.163704,180.000565 100.889954,185.869705 108.287086,185.973511 
	C116.056908,186.082550 123.829453,185.997925 131.569519,185.997925 
	C131.569519,192.373489 131.569519,198.080688 131.569519,204.000366 
	C122.981201,204.000366 114.821884,203.990860 106.662605,204.003754 
	C101.305840,204.012207 96.395279,206.917130 95.299110,211.718704 
	C94.256310,216.286560 94.147270,221.476654 98.918533,224.201645 
	C102.319870,226.144226 106.407257,227.523071 110.294930,227.837585 
	C117.353226,228.408600 124.490822,227.999542 131.576950,227.999542 
	C131.576950,234.037094 131.576950,239.412201 131.576950,244.485840 
	C122.380318,245.001389 113.594231,245.216095 104.871506,246.074570 
	C98.398506,246.711624 94.513969,252.148285 94.997620,258.619110 
	C95.369606,263.595978 100.864738,269.585419 106.640022,269.156036 
	C114.877899,268.543549 123.195267,269.000244 131.627045,269.000244 
	C131.627045,275.267181 131.627045,280.972961 131.627045,287.000702 
	C123.778633,287.000702 116.299179,286.944763 108.821014,287.019287 
	C103.351074,287.073792 98.605377,289.049652 96.124886,294.079865 
	C92.109093,302.223572 97.815536,310.915100 106.965630,310.985413 
	C115.221413,311.048859 123.478058,310.998810 131.689697,310.998810 
	C131.689697,317.376038 131.689697,322.964386 131.689697,329.001373 
	C123.755905,329.001373 116.125931,328.925812 108.498123,329.022064 
	C100.465324,329.123383 95.015480,334.392914 94.972588,341.660095 
	C94.939804,347.214905 99.936310,353.592377 108.293289,353.097290 
	C116.037292,352.638519 123.829857,352.999512 131.365341,352.999512 
	C131.700745,353.957031 131.896637,354.258636 131.899261,354.561981 
	C131.946945,360.059814 131.943817,365.558136 132.007401,371.055725 
	C132.094772,378.612823 135.445328,381.981384 142.847305,381.997528 
	C148.781082,382.010468 154.714905,382.000153 161.001373,382.000153 
	C161.001373,390.670898 160.910172,398.645233 161.026947,406.616516 
	C161.144638,414.649323 166.029236,419.285034 173.802536,418.998657 
	C180.198135,418.763062 184.883011,413.635742 184.974411,406.501587 
	C185.078003,398.415741 184.998322,390.327576 184.998322,382.322571 
	C191.401337,382.322571 196.989365,382.322571 203.001678,382.322571 
	C203.001678,390.938446 202.929077,399.238312 203.024368,407.536285 
	C203.102249,414.318817 207.891464,418.998016 214.513031,418.998566 
	C221.556686,418.999146 226.881821,413.774994 226.974762,406.537384 
	C227.078644,398.448822 226.998611,390.357910 226.998611,382.309723 
	C233.375458,382.309723 238.963715,382.309723 245.001694,382.309723 
	C245.001694,390.909149 244.953918,399.205170 245.019379,407.500305 
	C245.059540,412.588898 248.858566,417.905548 252.982803,418.905029 
	C259.045776,420.374359 264.517151,418.062347 267.020782,412.420471 
	C268.181061,409.805756 268.810150,406.776031 268.913574,403.906830 
	C269.174286,396.670715 268.999908,389.418915 268.999908,382.354919 
	C275.471069,382.354919 281.060883,382.354919 287.000854,382.354919 
	C287.000854,391.179810 287.108429,399.655823 286.960266,408.127319 
	C286.872192,413.162872 289.554718,416.368988 293.697662,418.126038 
	C297.946533,419.928070 302.300476,419.777618 306.150940,416.411682 
	C309.997772,413.048859 310.833344,408.590729 310.950867,403.951874 
	C311.134399,396.705719 310.999451,389.451508 310.999451,382.315308 
	C317.439606,382.315308 323.031677,382.315308 329.001892,382.315308 
	C329.001892,390.928711 328.982391,399.230774 329.007843,407.532654 
	C329.029785,414.700775 333.287384,418.978149 340.355103,418.999695 
	C347.806366,419.022369 351.975800,414.854218 351.991241,407.322906 
	C352.008209,399.049072 351.995117,390.775208 351.995117,381.999420 
	C358.629028,381.999420 364.611389,382.307892 370.536896,381.861755 
	C373.264893,381.656403 375.881653,379.973236 379.097534,378.368927 
z"/>
<path fill="#000000" opacity="1.000000" stroke="none" 
	d="
M513.000000,226.531342 
	C512.337280,226.221024 511.186798,225.501923 511.082764,224.654373 
	C508.029114,199.778473 501.230286,176.014481 491.120270,153.057999 
	C482.055023,132.473679 470.366241,113.543610 456.397675,96.077072 
	C437.385925,72.304436 414.479004,52.827183 388.403046,37.117352 
	C365.628693,23.396597 341.235168,13.588709 315.315857,7.758826 
	C306.077728,5.680940 296.623444,4.568608 287.278351,2.954565 
	C286.396393,2.802235 285.590149,2.211501 284.874390,1.412153 
	C360.926727,1.000000 436.853424,1.000000 513.000000,1.000000 
	C513.000000,76.020752 513.000000,151.041718 513.000000,226.531342 
z"/>
<path fill="#000000" opacity="1.000000" stroke="none" 
	d="
M227.531342,1.000000 
	C227.184479,1.663032 226.425064,2.817014 225.545242,2.917581 
	C200.985397,5.724896 177.463669,12.210281 154.757614,21.996593 
	C132.310776,31.671175 111.574463,44.185726 92.906250,59.812355 
	C70.770378,78.341644 51.963509,99.908043 36.992413,124.757439 
	C27.310812,140.827209 19.049400,157.616852 13.543982,175.444565 
	C8.933134,190.375458 6.423286,205.954437 2.940793,221.236801 
	C2.775984,221.960052 2.199673,222.589508 1.407499,223.131317 
	C1.000000,149.072144 1.000000,75.144295 1.000000,1.000000 
	C76.354088,1.000000 151.708389,1.000000 227.531342,1.000000 
z"/>
<path fill="#000000" opacity="1.000000" stroke="none" 
	d="
M292.468658,513.000000 
	C292.466736,512.354736 292.876251,511.197601 293.408478,511.138123 
	C312.897888,508.959656 331.598297,503.646667 349.781921,496.560852 
	C373.907257,487.159668 396.344421,474.696686 416.348572,458.121735 
	C423.707275,452.024536 431.433350,446.225525 437.992401,439.338654 
	C451.475616,425.181671 463.871674,410.107758 474.330841,393.449951 
	C490.801453,367.217865 502.024445,339.003296 508.023529,308.660828 
	C509.402740,301.684845 510.797058,294.711853 512.592224,287.868744 
	C513.000000,362.926361 513.000000,437.852753 513.000000,513.000000 
	C439.645935,513.000000 366.291626,513.000000 292.468658,513.000000 
z"/>
<path fill="#000000" opacity="1.000000" stroke="none" 
	d="
M0.999999,292.468658 
	C1.659388,292.611725 2.826071,293.165039 2.904186,293.843658 
	C5.012622,312.160553 9.843314,329.852142 16.162760,347.052246 
	C25.032290,371.193115 37.219429,393.706146 53.438282,413.722351 
	C62.696346,425.147980 72.524773,436.256470 83.173187,446.374481 
	C97.105057,459.612488 112.778534,470.734253 129.559418,480.310669 
	C151.259583,492.694397 174.207504,501.689423 198.525208,507.221191 
	C205.211105,508.742096 212.015656,509.737732 218.752258,511.044006 
	C219.634155,511.215027 220.435257,511.802704 221.136887,512.598694 
	C147.739471,513.000000 74.478943,513.000000 1.000000,513.000000 
	C1.000000,439.645905 1.000000,366.291626 0.999999,292.468658 
z"/>
<path fill="#000000" opacity="1.000000" stroke="none" 
	d="
M378.823181,378.664551 
	C375.881653,379.973236 373.264893,381.656403 370.536896,381.861755 
	C364.611389,382.307892 358.629028,381.999420 351.995117,381.999420 
	C351.995117,390.775208 352.008209,399.049072 351.991241,407.322906 
	C351.975800,414.854218 347.806366,419.022369 340.355103,418.999695 
	C333.287384,418.978149 329.029785,414.700775 329.007843,407.532654 
	C328.982391,399.230774 329.001892,390.928711 329.001892,382.315308 
	C323.031677,382.315308 317.439606,382.315308 310.999451,382.315308 
	C310.999451,389.451508 311.134399,396.705719 310.950867,403.951874 
	C310.833344,408.590729 309.997772,413.048859 306.150940,416.411682 
	C302.300476,419.777618 297.946533,419.928070 293.697662,418.126038 
	C289.554718,416.368988 286.872192,413.162872 286.960266,408.127319 
	C287.108429,399.655823 287.000854,391.179810 287.000854,382.354919 
	C281.060883,382.354919 275.471069,382.354919 268.999908,382.354919 
	C268.999908,389.418915 269.174286,396.670715 268.913574,403.906830 
	C268.810150,406.776031 268.181061,409.805756 267.020782,412.420471 
	C264.517151,418.062347 259.045776,420.374359 252.982803,418.905029 
	C248.858566,417.905548 245.059540,412.588898 245.019379,407.500305 
	C244.953918,399.205170 245.001694,390.909149 245.001694,382.309723 
	C238.963715,382.309723 233.375458,382.309723 226.998611,382.309723 
	C226.998611,390.357910 227.078644,398.448822 226.974762,406.537384 
	C226.881821,413.774994 221.556686,418.999146 214.513031,418.998566 
	C207.891464,418.998016 203.102249,414.318817 203.024368,407.536285 
	C202.929077,399.238312 203.001678,390.938446 203.001678,382.322571 
	C196.989365,382.322571 191.401337,382.322571 184.998322,382.322571 
	C184.998322,390.327576 185.078003,398.415741 184.974411,406.501587 
	C184.883011,413.635742 180.198135,418.763062 173.802536,418.998657 
	C166.029236,419.285034 161.144638,414.649323 161.026947,406.616516 
	C160.910172,398.645233 161.001373,390.670898 161.001373,382.000153 
	C154.714905,382.000153 148.781082,382.010468 142.847305,381.997528 
	C135.445328,381.981384 132.094772,378.612823 132.007401,371.055725 
	C131.943817,365.558136 131.946945,360.059814 131.899261,354.561981 
	C131.896637,354.258636 131.700745,353.957031 131.365341,352.999512 
	C123.829857,352.999512 116.037292,352.638519 108.293289,353.097290 
	C99.936310,353.592377 94.939804,347.214905 94.972588,341.660095 
	C95.015480,334.392914 100.465324,329.123383 108.498123,329.022064 
	C116.125931,328.925812 123.755905,329.001373 131.689697,329.001373 
	C131.689697,322.964386 131.689697,317.376038 131.689697,310.998810 
	C123.478058,310.998810 115.221413,311.048859 106.965630,310.985413 
	C97.815536,310.915100 92.109093,302.223572 96.124886,294.079865 
	C98.605377,289.049652 103.351074,287.073792 108.821014,287.019287 
	C116.299179,286.944763 123.778633,287.000702 131.627045,287.000702 
	C131.627045,280.972961 131.627045,275.267181 131.627045,269.000244 
	C123.195267,269.000244 114.877899,268.543549 106.640022,269.156036 
	C100.864738,269.585419 95.369606,263.595978 94.997620,258.619110 
	C94.513969,252.148285 98.398506,246.711624 104.871506,246.074570 
	C113.594231,245.216095 122.380318,245.001389 131.576950,244.485840 
	C131.576950,239.412201 131.576950,234.037094 131.576950,227.999542 
	C124.490822,227.999542 117.353226,228.408600 110.294930,227.837585 
	C106.407257,227.523071 102.319870,226.144226 98.918533,224.201645 
	C94.147270,221.476654 94.256310,216.286560 95.299110,211.718704 
	C96.395279,206.917130 101.305840,204.012207 106.662605,204.003754 
	C114.821884,203.990860 122.981201,204.000366 131.569519,204.000366 
	C131.569519,198.080688 131.569519,192.373489 131.569519,185.997925 
	C123.829453,185.997925 116.056908,186.082550 108.287086,185.973511 
	C100.889954,185.869705 94.163704,180.000565 94.898224,173.176605 
	C95.576393,166.876038 99.933182,162.103867 106.440994,162.026428 
	C114.741325,161.927658 123.043716,162.002487 132.000549,162.002487 
	C132.000549,155.830948 131.970474,150.061386 132.007782,144.292267 
	C132.060379,136.159042 135.284027,133.019775 143.484711,132.997498 
	C148.815887,132.983017 154.147003,132.942551 159.477936,132.891159 
	C159.777878,132.888275 160.075821,132.679626 161.001801,132.329895 
	C161.001801,124.461739 160.873215,116.351257 161.038574,108.246780 
	C161.198761,100.394836 166.672989,94.433899 175.518616,95.970589 
	C181.142914,96.947655 184.917557,101.707291 184.981735,108.590256 
	C185.055893,116.544640 184.998978,124.500252 184.998978,132.722687 
	C191.101639,132.722687 196.690048,132.722687 203.000076,132.722687 
	C203.000076,124.733002 202.989365,116.802925 203.003098,108.872879 
	C203.016846,100.936760 207.254623,96.037430 214.102448,96.004761 
	C222.195511,95.966156 226.901794,100.571655 226.982941,108.784050 
	C227.060165,116.598915 226.999557,124.415138 226.999557,132.614166 
	C233.000885,132.614166 238.708069,132.614166 245.000427,132.614166 
	C245.000427,124.740150 244.994385,116.960098 245.002106,109.180061 
	C245.010056,101.184258 249.441803,95.764198 256.195526,95.470108 
	C262.746277,95.184860 268.769958,101.472939 268.968079,109.077324 
	C269.167603,116.735168 269.128052,124.399223 269.208496,132.060394 
	C269.209869,132.186279 269.404694,132.310120 269.746246,132.717834 
	C275.092682,132.717834 280.681488,132.717834 287.000641,132.717834 
	C287.000641,124.416328 286.992401,116.153999 287.003143,107.891685 
	C287.012329,100.857674 290.594299,96.713524 297.405182,95.821510 
	C303.347748,95.043221 308.876434,98.869064 309.911804,105.458900 
	C310.829315,111.298630 310.730621,117.303970 310.978363,123.240463 
	C311.102814,126.222961 311.000061,129.214951 311.000061,132.599030 
	C316.969330,132.599030 322.681702,132.599030 328.996826,132.599030 
	C328.996826,124.501396 329.526276,116.347679 328.825836,108.301025 
	C328.285614,102.094986 333.194794,95.927383 340.401672,95.406998 
	C346.676880,94.953880 351.983551,101.022568 351.991760,108.048309 
	C352.001251,116.166557 351.993988,124.284828 351.993988,133.000839 
	C358.355286,133.000839 364.136627,132.993164 369.917938,133.002670 
	C378.105530,133.016144 380.988586,135.843445 381.003143,143.827377 
	C381.013153,149.326111 381.037872,154.824844 381.072418,160.323471 
	C381.074402,160.638016 381.224976,160.951645 381.497131,162.001282 
	C389.052979,162.001282 396.813110,162.001068 404.573242,162.001343 
	C412.628418,162.001633 419.156952,167.305435 418.938202,173.670975 
	C418.723907,179.907196 411.781952,185.889130 404.449127,185.978058 
	C396.826385,186.070496 389.201630,185.998657 381.292786,185.998657 
	C381.292786,192.080780 381.292786,197.674133 381.292786,203.999695 
	C389.342834,203.999695 397.474640,204.494766 405.516510,203.856491 
	C413.124817,203.252594 417.805908,209.127945 418.824402,215.143936 
	C419.654846,220.049454 414.436066,225.990768 408.263550,226.926285 
	C402.583191,227.787186 396.758545,227.738098 390.992798,227.976959 
	C387.869598,228.106354 384.736664,228.000000 381.307983,228.000000 
	C381.307983,233.711853 381.307983,238.966476 381.307983,245.000351 
	C388.370728,245.000351 395.463531,244.911087 402.552734,245.032028 
	C407.208466,245.111450 411.686676,245.802399 415.135529,249.560135 
	C418.078125,252.766251 420.183411,256.035126 418.136047,260.550568 
	C415.972626,265.321960 413.118195,269.075409 407.168732,269.020386 
	C398.687347,268.941925 390.204651,269.000427 381.363190,269.000427 
	C381.363190,274.978149 381.363190,280.689880 381.363190,287.001129 
	C389.083832,287.001129 396.696594,286.940674 404.307983,287.018738 
	C411.383362,287.091309 415.962463,290.104095 418.036499,295.837158 
	C420.460571,302.537842 414.918488,310.859161 407.786499,310.966858 
	C399.131653,311.097565 390.473328,310.997894 381.409546,310.997894 
	C381.409546,316.926941 381.409546,322.636047 381.409546,329.000946 
	C389.352417,329.000946 397.297607,328.817505 405.228699,329.072662 
	C409.683441,329.216003 413.743469,330.228363 416.523499,334.713043 
	C419.085144,338.845459 419.412964,342.462860 417.118927,346.604187 
	C414.826385,350.742737 411.261108,352.854370 406.701141,352.948700 
	C398.390167,353.120605 390.073120,352.997559 381.000275,352.997559 
	C381.000275,359.711487 381.145355,366.142517 380.912903,372.559845 
	C380.842072,374.515564 379.731781,376.433624 378.823181,378.664551 
M375.000122,166.500000 
	C375.000122,157.753448 375.000122,149.006912 375.000122,140.350983 
	C295.853363,140.350983 217.612350,140.350983 139.262070,140.350983 
	C139.262070,218.617874 139.262070,296.533569 139.262070,374.765717 
	C141.125229,374.851135 142.746033,374.990234 144.366852,374.990479 
	C219.192322,375.001190 294.017914,374.944611 368.842987,375.116760 
	C374.158752,375.128998 375.107239,373.299500 375.096954,368.478668 
	C374.953857,301.486023 375.000122,234.492966 375.000122,166.500000 
z"/>
<path fill="#6C27B3" opacity="1.000000" stroke="none" 
	d="
M375.000122,167.000000 
	C375.000122,234.492966 374.953857,301.486023 375.096954,368.478668 
	C375.107239,373.299500 374.158752,375.128998 368.842987,375.116760 
	C294.017914,374.944611 219.192322,375.001190 144.366852,374.990479 
	C142.746033,374.990234 141.125229,374.851135 139.262070,374.765717 
	C139.262070,296.533569 139.262070,218.617874 139.262070,140.350983 
	C217.612350,140.350983 295.853363,140.350983 375.000122,140.350983 
	C375.000122,149.006912 375.000122,157.753448 375.000122,167.000000 
M352.470642,344.214905 
	C352.646729,342.402069 352.975800,340.589294 352.976715,338.776367 
	C353.004120,284.321411 353.008545,229.866440 352.963959,175.411530 
	C352.962219,173.286469 352.442535,171.161850 352.031921,168.273666 
	C351.438202,162.867859 347.826691,161.959641 343.193237,161.964203 
	C285.536957,162.020874 227.880569,161.999969 170.224228,162.002319 
	C163.710175,162.002594 161.009644,164.678818 161.008057,171.285599 
	C160.994217,228.775314 160.994110,286.265015 161.008560,343.754730 
	C161.010178,350.247070 163.812744,352.990723 170.416687,352.992126 
	C228.073029,353.004303 285.729370,353.002594 343.385712,352.994598 
	C349.640289,352.993744 351.536530,351.221527 352.470642,344.214905 
z"/>
<path fill="#000000" opacity="1.000000" stroke="none" 
	d="
M352.137634,344.960236 
	C351.536530,351.221527 349.640289,352.993744 343.385712,352.994598 
	C285.729370,353.002594 228.073029,353.004303 170.416687,352.992126 
	C163.812744,352.990723 161.010178,350.247070 161.008560,343.754730 
	C160.994110,286.265015 160.994217,228.775314 161.008057,171.285599 
	C161.009644,164.678818 163.710175,162.002594 170.224228,162.002319 
	C227.880569,161.999969 285.536957,162.020874 343.193237,161.964203 
	C347.826691,161.959641 351.438202,162.867859 352.031372,169.117630 
	C352.020538,198.215057 351.988129,226.468521 352.006012,254.721970 
	C352.025055,284.801392 352.091766,314.880829 352.137634,344.960236 
z"/>
<path fill="#8040BF" opacity="1.000000" stroke="none" 
	d="
M352.304138,344.587585 
	C352.091766,314.880829 352.025055,284.801392 352.006012,254.721970 
	C351.988129,226.468521 352.020538,198.215057 352.097534,169.499298 
	C352.442535,171.161850 352.962219,173.286469 352.963959,175.411530 
	C353.008545,229.866440 353.004120,284.321411 352.976715,338.776367 
	C352.975800,340.589294 352.646729,342.402069 352.304138,344.587585 
z"/>
</svg>